<svg version="1.2" xmlns="http://www.w3.org/2000/svg" viewBox="0 0 257 73" width="257" height="73"><defs><clipPath clipPathUnits="userSpaceOnUse" id="cp1"><path d="m394.49-49.73v172.7h-531.65v-172.7z"/></clipPath></defs><style>.a{fill:#003087}.b{fill:#009cde}.c{fill:#012169}</style><g clip-path="url(#cp1)"><path class="a" d="m53.5 11.4c-2.7-3.1-7.6-4.5-13.9-4.5h-18.4q-0.4 0-0.9 0.2-0.4 0.2-0.8 0.5-0.3 0.3-0.6 0.7-0.2 0.4-0.3 0.8l-7.6 48.4q0 0.4 0.1 0.7 0 0.3 0.3 0.6 0.2 0.3 0.5 0.4 0.3 0.1 0.7 0.1h11.3l2.8-18-0.1 0.6q0.1-0.5 0.3-0.9 0.3-0.4 0.6-0.7 0.4-0.3 0.8-0.5 0.4-0.1 0.9-0.1h5.4c10.5 0 18.8-4.3 21.2-16.7q0.1-0.6 0.2-1.1c0.7-4.6 0-7.7-2.5-10.5z"/><path class="b" d="m190.5 22.6h-12.6q-0.3 0-0.6 0.1-0.3 0.1-0.6 0.3-0.2 0.2-0.4 0.5-0.1 0.2-0.2 0.5l-5.1 32.5q0 0.2 0.1 0.4 0 0.2 0.2 0.4 0.1 0.2 0.3 0.3 0.2 0.1 0.5 0.1h6.5c0.6 0 1.1-0.5 1.2-1.1l1.4-9.2c0.2-0.8 0.9-1.4 1.8-1.4h4c8.3 0 13.1-4.1 14.4-12.1 0.5-3.4 0-6.2-1.7-8.1-1.8-2.1-4.9-3.2-9.2-3.2zm1.5 11.8c-0.7 4.5-4.2 4.5-7.5 4.5h-1.9l1.3-8.4c0.1-0.6 0.5-0.9 1-0.9h0.9c2.3 0 4.5 0 5.6 1.3q1 1.1 0.6 3.5z"/><path class="a" d="m100.3 22.6h-12.6c-0.9 0-1.6 0.6-1.8 1.4l-5.1 32.5q0 0.2 0.1 0.4 0 0.2 0.2 0.4 0.1 0.2 0.3 0.3 0.2 0.1 0.5 0.1h6c0.9 0 1.6-0.6 1.7-1.5l1.4-8.8c0.2-0.8 0.9-1.4 1.8-1.4h4c8.3 0 13.1-4.1 14.4-12.1 0.5-3.4 0-6.2-1.7-8.1-1.8-2.1-4.9-3.2-9.2-3.2zm1.5 11.8c-0.7 4.5-4.2 4.5-7.5 4.5h-1.9l1.3-8.4c0.1-0.6 0.5-0.9 1-0.9h0.9c2.3 0 4.5 0 5.6 1.3 0.6 0.7 0.8 1.9 0.6 3.5zm36.3-0.2h-6q-0.2 0-0.4 0.1-0.2 0.1-0.3 0.2-0.2 0.1-0.3 0.3 0 0.2-0.1 0.3l-0.2 1.7-0.5-0.6c-1.3-1.9-4.2-2.5-7.1-2.5-6.7 0-12.4 5.1-13.5 12.2-0.6 3.5 0.2 6.9 2.2 9.3 1.9 2.1 4.5 3 7.6 3 5.4 0 8.4-3.4 8.4-3.4l-0.2 1.7q-0.1 0.2 0 0.4 0 0.2 0.2 0.4 0.1 0.2 0.4 0.3 0.2 0.1 0.4 0.1h5.5c0.8 0 1.6-0.6 1.7-1.5l3.3-20.7q0-0.3-0.1-0.5 0-0.2-0.2-0.4-0.1-0.2-0.3-0.3-0.3 0-0.5-0.1zm-8.4 11.8c-0.6 3.5-3.4 5.8-6.9 5.8-1.7 0-3.1-0.5-4-1.6-0.9-1.1-1.3-2.6-1-4.3 0.6-3.4 3.4-5.8 6.8-5.8 1.7 0 3.1 0.6 4.1 1.7 0.9 1 1.2 2.6 1 4.2z"/><path class="b" d="m228.3 34.2h-6q-0.2 0-0.4 0.1-0.2 0.1-0.3 0.2-0.2 0.1-0.3 0.3 0 0.2-0.1 0.3l-0.2 1.7-0.5-0.6c-1.3-1.9-4.2-2.5-7.1-2.5-6.7 0-12.4 5.1-13.5 12.2-0.6 3.5 0.2 6.9 2.2 9.3 1.9 2.1 4.5 3 7.6 3 5.4 0 8.4-3.4 8.4-3.4l-0.2 1.7q-0.1 0.2 0 0.4 0.1 0.2 0.2 0.4 0.2 0.2 0.4 0.3 0.2 0.1 0.4 0.1h5.5c0.8 0 1.6-0.6 1.7-1.5l3.3-20.7q0-0.3-0.1-0.5 0-0.2-0.2-0.4-0.1-0.2-0.3-0.3-0.2 0-0.5-0.1zm-8.4 11.8c-0.6 3.5-3.3 5.8-6.9 5.8-1.7 0-3.1-0.5-4-1.6-0.9-1.1-1.3-2.6-1-4.3 0.6-3.4 3.4-5.8 6.8-5.8 1.7 0 3.1 0.6 4.1 1.7 0.9 1 1.2 2.6 1 4.2z"/><path class="a" d="m170.4 34.3h-6.1c-0.6 0-1.1 0.2-1.5 0.7l-8.4 12.4-3.5-11.9q-0.1-0.3-0.3-0.5-0.1-0.2-0.4-0.4-0.2-0.2-0.5-0.3-0.2 0-0.5-0.1h-6q-0.2 0.1-0.5 0.2-0.2 0.1-0.3 0.3-0.2 0.2-0.2 0.5-0.1 0.2 0 0.4l6.7 19.7-6.3 8.9q-0.2 0.3-0.2 0.6 0 0.2 0.1 0.5 0.2 0.3 0.4 0.4 0.3 0.2 0.6 0.2h6.1c0.5 0 1.1-0.3 1.4-0.8l20.2-29.2q0.2-0.2 0.2-0.5 0-0.3-0.1-0.6-0.1-0.2-0.4-0.4-0.2-0.1-0.5-0.1z"/><path class="b" d="m235.5 23.4l-5.2 33.1q-0.1 0.2 0 0.4 0.1 0.2 0.2 0.4 0.2 0.2 0.4 0.3 0.2 0.1 0.4 0.1h5.2c0.9 0 1.6-0.6 1.8-1.5l5.1-32.4q0-0.3 0-0.5-0.1-0.2-0.3-0.4-0.1-0.2-0.3-0.3-0.2 0-0.5 0h-5.8q-0.2 0-0.4 0-0.1 0.1-0.3 0.2-0.1 0.1-0.2 0.3-0.1 0.2-0.1 0.3z"/><path class="a" d="m53.5 11.4c-2.7-3.1-7.6-4.5-13.9-4.5h-18.4q-0.4 0-0.9 0.2-0.4 0.2-0.8 0.5-0.3 0.3-0.6 0.7-0.2 0.4-0.3 0.8l-7.6 48.4q0 0.4 0.1 0.7 0 0.3 0.3 0.6 0.2 0.3 0.5 0.4 0.3 0.1 0.7 0.1h11.3l2.8-18-0.1 0.6q0.1-0.5 0.3-0.9 0.3-0.4 0.6-0.7 0.4-0.3 0.8-0.5 0.4-0.1 0.9-0.1h5.4c10.5 0 18.8-4.3 21.2-16.7q0.1-0.6 0.2-1.1c0.7-4.6 0-7.7-2.5-10.5z"/><path class="a" d="m29.8 22q0-0.4 0.2-0.8 0.2-0.4 0.5-0.6 0.4-0.3 0.7-0.4 0.4-0.2 0.8-0.2h14.4q2.6 0 4.7 0.4 0.3 0 0.6 0.1 0.3 0 0.6 0.1 0.3 0.1 0.6 0.1 0.3 0.1 0.6 0.2 0.3 0.1 0.6 0.2 0.4 0.1 0.7 0.2 0.3 0.2 0.6 0.3 0.3 0.1 0.6 0.3c0.7-4.6 0-7.7-2.5-10.5-2.7-3.1-7.6-4.5-13.9-4.5h-18.4q-0.4 0-0.9 0.2-0.4 0.2-0.8 0.5-0.3 0.3-0.6 0.7-0.2 0.4-0.3 0.8l-7.6 48.4q0 0.4 0.1 0.7 0 0.3 0.3 0.6 0.2 0.2 0.5 0.4 0.3 0.1 0.7 0.1h11.3l2.8-18z"/><path class="b" d="m56 21.9q0 0.1 0 0.3-0.1 0.1-0.1 0.2 0 0.2 0 0.3-0.1 0.1-0.1 0.3c-2.4 12.4-10.7 16.7-21.2 16.7h-5.4q-0.5 0-0.9 0.1-0.4 0.2-0.8 0.5-0.3 0.3-0.6 0.7-0.2 0.4-0.3 0.9l-2.7 17.4-0.8 5q-0.1 0.3 0 0.6 0.1 0.3 0.3 0.5 0.2 0.2 0.5 0.4 0.3 0.1 0.6 0.1h9.5c1.1 0 2.1-0.8 2.3-2v-0.4l1.8-11.4 0.2-0.7q0-0.4 0.2-0.7 0.2-0.4 0.5-0.6 0.3-0.3 0.7-0.5 0.4-0.1 0.8-0.1h1.4c9.3 0 16.5-3.7 18.6-14.6 0.9-4.5 0.5-8.3-1.9-11q-0.3-0.3-0.6-0.6-0.3-0.3-0.6-0.5-0.3-0.3-0.7-0.5-0.3-0.2-0.7-0.4z"/><path class="c" d="m53.5 20.9q-0.6-0.2-1.2-0.3-0.5-0.1-1.2-0.2-2.1-0.4-4.7-0.4h-14.4q-0.4 0-0.8 0.2-0.3 0.1-0.7 0.4-0.3 0.2-0.5 0.6-0.2 0.4-0.2 0.8l-3.1 19.3-0.1 0.6q0.1-0.5 0.3-0.9 0.3-0.4 0.6-0.7 0.4-0.3 0.8-0.5 0.4-0.1 0.9-0.1h5.4c10.5 0 18.8-4.3 21.2-16.7q0.1-0.6 0.2-1.1-0.2-0.1-0.5-0.2-0.2-0.1-0.5-0.3-0.2-0.1-0.5-0.2-0.2 0-0.5-0.1-0.2-0.1-0.5-0.2z"/></g></svg>